<?xml version="1.0" standalone="no"?>
<!DOCTYPE svg PUBLIC "-//W3C//DTD SVG 20010904//EN"
 "http://www.w3.org/TR/2001/REC-SVG-20010904/DTD/svg10.dtd">
<svg version="1.0" xmlns="http://www.w3.org/2000/svg"
 width="2048.000000pt" height="2048.000000pt" viewBox="0 0 2048.000000 2048.000000"
 preserveAspectRatio="xMidYMid meet">

<g transform="translate(0.000000,2048.000000) scale(0.100000,-0.100000)"
fill="#000000" stroke="none">
<path d="M0 10240 l0 -10240 10240 0 10240 0 0 10240 0 10240 -10240 0 -10240
0 0 -10240z m7196 3714 c82 -48 221 -128 309 -179 88 -50 235 -135 327 -189
92 -53 252 -145 355 -204 317 -183 656 -378 918 -530 231 -134 473 -274 865
-499 l155 -89 3 -1852 c1 -1019 0 -1852 -2 -1852 -3 0 -58 31 -123 69 -154 89
-348 201 -553 319 -91 52 -221 127 -290 167 -69 40 -215 124 -325 187 -110 64
-389 225 -620 358 -231 134 -476 275 -545 315 -69 40 -217 125 -330 191 -113
65 -226 130 -252 144 l-48 25 0 1853 c0 1018 2 1852 3 1852 2 0 71 -39 153
-86z m6242 -3620 c-7 -6 -134 -81 -283 -166 -230 -132 -414 -238 -720 -416
-33 -19 -81 -46 -106 -61 -74 -42 -473 -272 -489 -281 -34 -21 -249 -145 -440
-255 -113 -65 -290 -168 -395 -228 -104 -60 -280 -161 -390 -225 -110 -63
-209 -121 -220 -128 -11 -8 -23 -14 -27 -14 -5 0 -8 831 -8 1848 0 1748 1
1848 18 1858 9 6 139 81 287 166 508 293 970 559 1025 592 30 18 87 51 125 73
39 22 102 58 140 80 39 23 86 50 105 61 19 11 63 36 98 56 34 20 90 52 125 72
34 20 78 45 97 56 109 62 443 255 490 283 54 32 162 94 230 133 19 11 105 60
190 110 l155 90 3 -1846 c2 -1469 -1 -1849 -10 -1858z m-6492 -203 c5 -5 86
-53 179 -106 94 -54 249 -143 345 -199 96 -57 238 -139 315 -183 77 -45 228
-132 335 -194 107 -61 267 -154 355 -204 88 -51 216 -125 285 -165 69 -40 213
-123 320 -185 107 -61 256 -147 330 -190 74 -43 176 -102 225 -130 114 -65
408 -235 458 -265 21 -12 37 -24 35 -25 -2 -1 -37 -22 -78 -45 -41 -24 -102
-59 -135 -78 -33 -19 -121 -70 -195 -112 -74 -42 -191 -110 -260 -150 -69 -40
-197 -115 -285 -165 -273 -157 -565 -325 -690 -397 -145 -85 -194 -113 -445
-258 -107 -62 -224 -129 -260 -150 -36 -21 -121 -70 -190 -110 -69 -40 -246
-142 -394 -227 -234 -135 -272 -154 -291 -145 -25 11 -260 146 -992 569 -93
53 -271 156 -398 228 -126 73 -347 200 -491 283 -143 82 -368 212 -500 287
-131 76 -282 163 -334 193 -52 30 -182 105 -288 166 -151 86 -190 113 -180
122 11 10 276 164 488 284 36 20 126 71 200 114 74 44 272 158 440 254 168 96
348 200 400 230 52 30 156 90 230 132 74 42 252 144 395 227 143 82 382 220
530 305 149 86 324 187 390 226 126 74 135 78 151 63z m6770 -77 c82 -47 253
-146 379 -219 127 -73 275 -158 330 -190 55 -32 129 -75 165 -95 36 -20 148
-85 250 -145 102 -59 246 -143 320 -185 157 -90 757 -436 845 -488 33 -19 89
-52 125 -72 67 -38 163 -93 190 -109 8 -5 111 -64 228 -131 117 -68 214 -125
216 -129 3 -4 -28 -25 -67 -47 -99 -56 -752 -433 -1107 -639 -322 -187 -383
-222 -535 -310 -153 -88 -410 -236 -580 -335 -44 -25 -188 -108 -320 -185
-132 -76 -278 -160 -325 -188 -47 -27 -124 -71 -172 -99 -96 -55 -81 -56 -188
7 -30 18 -86 50 -125 73 -341 197 -517 299 -555 320 -25 14 -97 55 -160 92
-63 37 -207 120 -320 185 -190 109 -416 239 -620 358 -47 27 -222 128 -390
225 -168 97 -402 232 -520 300 -118 68 -259 150 -312 180 -54 31 -98 59 -98
62 0 3 33 23 73 46 76 43 223 128 497 286 91 52 271 156 400 230 129 75 307
177 395 228 88 51 293 169 455 263 162 93 381 219 485 279 105 61 332 191 505
290 173 99 331 191 350 204 19 13 35 24 36 24 1 0 68 -39 150 -86z"/>
</g>
</svg>
